<svg xmlns="http://www.w3.org/2000/svg" xmlns:xlink="http://www.w3.org/1999/xlink" viewBox="23.32 199.91 525.26 100.18"><defs><style>.cls-1{fill:url(#linear-gradient);}.cls-2{fill:url(#linear-gradient-2);}.cls-3{fill:url(#linear-gradient-3);}.cls-4{fill:url(#linear-gradient-4);}.cls-5{fill:url(#linear-gradient-5);}.cls-6{font-size:40px;fill:#0e424d;font-family:Montserrat-Black, Montserrat;font-weight:800;}.cls-7{letter-spacing:-0.01em;}.cls-8{letter-spacing:-0.02em;}.cls-9{letter-spacing:0.01em;}.cls-10{letter-spacing:0em;}.cls-11{letter-spacing:-0.02em;}.cls-12{letter-spacing:-0.02em;}.cls-13{letter-spacing:0.07em;}</style><linearGradient id="linear-gradient" x1="81.26" y1="279.57" x2="81.26" y2="140.64" gradientUnits="userSpaceOnUse"><stop offset="0" stop-color="#5caa9a"/><stop offset="1" stop-color="#9dccc2"/></linearGradient><linearGradient id="linear-gradient-2" x1="97.25" y1="310.52" x2="97.25" y2="227.1" gradientUnits="userSpaceOnUse"><stop offset="0" stop-color="#0e424d"/><stop offset="1" stop-color="#5caa9a"/></linearGradient><linearGradient id="linear-gradient-3" x1="97.25" y1="302.33" x2="97.25" y2="243.22" gradientUnits="userSpaceOnUse"><stop offset="0" stop-color="#f8ba27"/><stop offset="1" stop-color="#f37a4b"/></linearGradient><linearGradient id="linear-gradient-4" x1="109.13" y1="232.27" x2="149.02" y2="300.56" gradientUnits="userSpaceOnUse"><stop offset="0" stop-color="#f7e041"/><stop offset="1" stop-color="#f37a4b"/></linearGradient><linearGradient id="linear-gradient-5" x1="99.29" y1="274.76" x2="57.1" y2="201.57" xlink:href="#linear-gradient-2"/></defs><g id="OBJECTS"><rect class="cls-1" x="23.32" y="199.91" width="115.87" height="82.48" rx="41.24"/><path class="cls-2" d="M127.87,238.85a21.66,21.66,0,0,0-30.62,0,21.65,21.65,0,0,0-30.62,30.62l30.62,30.62,30.62-30.62A21.66,21.66,0,0,0,127.87,238.85Z"/><path class="cls-3" d="M97.25,238.85a21.65,21.65,0,0,0-30.62,30.62l12.91,12.91H98a41.05,41.05,0,0,0,27.61-10.61l2.3-2.3a21.65,21.65,0,0,0-30.62-30.62Z"/><path class="cls-4" d="M97.25,238.85s24.51,29.46,35.51,23.12a21.66,21.66,0,0,0-35.51-23.12Z"/><path class="cls-5" d="M98,199.91H64.56a41.25,41.25,0,0,0-39.87,30.7c21.41-8.1,36.64,5.73,57.69-2,16.64-6.08,21.8-19.1,23.34-28A41.41,41.41,0,0,0,98,199.91Z"/><text class="cls-6" transform="translate(163.86 260.05)"><tspan class="cls-7">C</tspan><tspan x="29.36" y="0">us</tspan><tspan class="cls-8" x="79.88" y="0">t</tspan><tspan x="97.68" y="0">o</tspan><tspan class="cls-9" x="124.8" y="0">m</tspan><tspan class="cls-10" x="166.8" y="0">er L</tspan><tspan class="cls-11" x="247.84" y="0">o</tspan><tspan class="cls-12" x="274.36" y="0">y</tspan><tspan x="299.32" y="0">a</tspan><tspan class="cls-13" x="324.88" y="0">l</tspan><tspan class="cls-7" x="340.72" y="0">t</tspan><tspan x="358.72" y="0">y</tspan></text></g></svg>