<svg xmlns="http://www.w3.org/2000/svg" xmlns:xlink="http://www.w3.org/1999/xlink" viewBox="0 0 500 500"><defs><style>.cls-1{fill:url(#linear-gradient);}.cls-2{fill:url(#linear-gradient-2);}.cls-3{fill:url(#linear-gradient-3);}.cls-4{fill:url(#linear-gradient-4);}.cls-5{fill:url(#linear-gradient-5);}.cls-6{font-size:27.9px;fill:#0e424d;font-family:Montserrat-Black, Montserrat;font-weight:800;}.cls-7{letter-spacing:-0.01em;}.cls-8{letter-spacing:0em;}.cls-9{letter-spacing:-0.01em;}.cls-10{letter-spacing:0.01em;}.cls-11{letter-spacing:-0.02em;}.cls-12{letter-spacing:-0.02em;}.cls-13{letter-spacing:0em;}.cls-14{letter-spacing:0.07em;}.cls-15{letter-spacing:-0.01em;}</style><linearGradient id="linear-gradient" x1="250" y1="294.62" x2="250" y2="36.44" gradientUnits="userSpaceOnUse"><stop offset="0" stop-color="#5caa9a"/><stop offset="1" stop-color="#9dccc2"/></linearGradient><linearGradient id="linear-gradient-2" x1="279.71" y1="352.12" x2="279.71" y2="197.12" gradientUnits="userSpaceOnUse"><stop offset="0" stop-color="#0e424d"/><stop offset="1" stop-color="#5caa9a"/></linearGradient><linearGradient id="linear-gradient-3" x1="279.71" y1="336.92" x2="279.71" y2="227.08" gradientUnits="userSpaceOnUse"><stop offset="0" stop-color="#f8ba27"/><stop offset="1" stop-color="#f37a4b"/></linearGradient><linearGradient id="linear-gradient-4" x1="301.78" y1="206.73" x2="375.92" y2="333.62" gradientUnits="userSpaceOnUse"><stop offset="0" stop-color="#f7e041"/><stop offset="1" stop-color="#f37a4b"/></linearGradient><linearGradient id="linear-gradient-5" x1="283.51" y1="285.67" x2="205.1" y2="149.67" xlink:href="#linear-gradient-2"/></defs><g id="OBJECTS"><rect class="cls-1" x="142.34" y="146.58" width="215.33" height="153.27" rx="76.63"/><path class="cls-2" d="M336.61,219a40.24,40.24,0,0,0-56.9,0,40.24,40.24,0,0,0-56.9,56.91l56.9,56.9,56.9-56.9A40.25,40.25,0,0,0,336.61,219Z"/><path class="cls-3" d="M279.71,219a40.24,40.24,0,0,0-56.9,56.91l24,24H281a76.36,76.36,0,0,0,51.32-19.73l4.26-4.26A40.24,40.24,0,0,0,279.71,219Z"/><path class="cls-4" d="M279.71,219s45.56,54.75,66,42.95a40.23,40.23,0,0,0-66-42.95Z"/><path class="cls-5" d="M281,146.58H219a76.66,76.66,0,0,0-74.1,57c39.79-15,68.1,10.66,107.22-3.63C283,188.7,292.6,164.49,295.45,148A77,77,0,0,0,281,146.58Z"/><text class="cls-6" transform="translate(115.63 372.42)"><tspan class="cls-7">C</tspan><tspan class="cls-8" x="20.48" y="0">us</tspan><tspan class="cls-9" x="55.72" y="0">t</tspan><tspan x="68.14" y="0">o</tspan><tspan class="cls-10" x="87.06" y="0">m</tspan><tspan x="116.36" y="0">er L</tspan><tspan class="cls-11" x="172.89" y="0">o</tspan><tspan class="cls-12" x="191.39" y="0">y</tspan><tspan class="cls-13" x="208.8" y="0">a</tspan><tspan class="cls-14" x="226.63" y="0">l</tspan><tspan class="cls-15" x="237.68" y="0">t</tspan><tspan class="cls-13" x="250.24" y="0">y</tspan></text></g></svg>